<mxfile host="app.diagrams.net" modified="2024-02-29T03:57:20.929Z" agent="Mozilla/5.0 (Windows NT 10.0; Win64; x64) AppleWebKit/537.36 (KHTML, like Gecko) Chrome/122.0.0.0 Safari/537.36" etag="aYIjzpJWDPk0zO3_zcqA" version="21.4.0" type="device">
  <diagram name="Página-1" id="xKsQgd3cjxIXPARq9uHn">
    <mxGraphModel dx="1674" dy="738" grid="1" gridSize="10" guides="1" tooltips="1" connect="1" arrows="1" fold="1" page="1" pageScale="1" pageWidth="1169" pageHeight="827" math="0" shadow="0">
      <root>
        <mxCell id="0" />
        <mxCell id="1" parent="0" />
        <mxCell id="HZ5mrHQPzUBld42VMh8N-2" value="" style="rounded=1;whiteSpace=wrap;html=1;" vertex="1" parent="1">
          <mxGeometry x="380" y="130" width="370" height="670" as="geometry" />
        </mxCell>
        <mxCell id="HZ5mrHQPzUBld42VMh8N-3" value="&lt;font style=&quot;font-size: 18px;&quot;&gt;Sistema De Gestión de Biblioteca&lt;/font&gt;" style="text;html=1;strokeColor=none;fillColor=none;align=center;verticalAlign=middle;whiteSpace=wrap;rounded=0;" vertex="1" parent="1">
          <mxGeometry x="465" y="140" width="170" height="60" as="geometry" />
        </mxCell>
        <mxCell id="HZ5mrHQPzUBld42VMh8N-4" value="REGISTRAR LIBRO" style="ellipse;whiteSpace=wrap;html=1;" vertex="1" parent="1">
          <mxGeometry x="490" y="210" width="140" height="60" as="geometry" />
        </mxCell>
        <mxCell id="HZ5mrHQPzUBld42VMh8N-5" value="REGISTRAR USUARIO" style="ellipse;whiteSpace=wrap;html=1;" vertex="1" parent="1">
          <mxGeometry x="493" y="294" width="140" height="60" as="geometry" />
        </mxCell>
        <mxCell id="HZ5mrHQPzUBld42VMh8N-6" value="PRESTAR LIBRO" style="ellipse;whiteSpace=wrap;html=1;" vertex="1" parent="1">
          <mxGeometry x="494" y="371" width="140" height="60" as="geometry" />
        </mxCell>
        <mxCell id="HZ5mrHQPzUBld42VMh8N-7" value="DEVOLVER LIBRO" style="ellipse;whiteSpace=wrap;html=1;" vertex="1" parent="1">
          <mxGeometry x="494" y="444" width="140" height="60" as="geometry" />
        </mxCell>
        <mxCell id="HZ5mrHQPzUBld42VMh8N-8" value="BUSCAR LIBRO" style="ellipse;whiteSpace=wrap;html=1;" vertex="1" parent="1">
          <mxGeometry x="496" y="515" width="140" height="60" as="geometry" />
        </mxCell>
        <mxCell id="HZ5mrHQPzUBld42VMh8N-9" value="ADMINISTRAR USUARIO" style="ellipse;whiteSpace=wrap;html=1;" vertex="1" parent="1">
          <mxGeometry x="493" y="586" width="140" height="60" as="geometry" />
        </mxCell>
        <mxCell id="HZ5mrHQPzUBld42VMh8N-10" value="OBTENER MULTA" style="ellipse;whiteSpace=wrap;html=1;" vertex="1" parent="1">
          <mxGeometry x="490" y="656" width="140" height="60" as="geometry" />
        </mxCell>
        <mxCell id="HZ5mrHQPzUBld42VMh8N-11" value="ADMINISTRAR PERIODO DE TIEMPO" style="ellipse;whiteSpace=wrap;html=1;" vertex="1" parent="1">
          <mxGeometry x="490" y="725" width="140" height="62" as="geometry" />
        </mxCell>
        <mxCell id="HZ5mrHQPzUBld42VMh8N-12" value="ADMIN" style="shape=umlActor;verticalLabelPosition=bottom;verticalAlign=top;html=1;outlineConnect=0;" vertex="1" parent="1">
          <mxGeometry x="210" y="294" width="70" height="126" as="geometry" />
        </mxCell>
        <mxCell id="HZ5mrHQPzUBld42VMh8N-13" value="USUARIO&lt;br&gt;" style="shape=umlActor;verticalLabelPosition=bottom;verticalAlign=top;html=1;outlineConnect=0;" vertex="1" parent="1">
          <mxGeometry x="880" y="288" width="70" height="126" as="geometry" />
        </mxCell>
        <mxCell id="HZ5mrHQPzUBld42VMh8N-19" value="" style="endArrow=none;html=1;rounded=0;entryX=0.5;entryY=1;entryDx=0;entryDy=0;" edge="1" parent="1" source="HZ5mrHQPzUBld42VMh8N-12" target="HZ5mrHQPzUBld42VMh8N-4">
          <mxGeometry width="50" height="50" relative="1" as="geometry">
            <mxPoint x="290" y="350" as="sourcePoint" />
            <mxPoint x="610" y="450" as="targetPoint" />
          </mxGeometry>
        </mxCell>
        <mxCell id="HZ5mrHQPzUBld42VMh8N-20" value="" style="endArrow=none;html=1;rounded=0;" edge="1" parent="1" target="HZ5mrHQPzUBld42VMh8N-5">
          <mxGeometry width="50" height="50" relative="1" as="geometry">
            <mxPoint x="280" y="350" as="sourcePoint" />
            <mxPoint x="570" y="280" as="targetPoint" />
          </mxGeometry>
        </mxCell>
        <mxCell id="HZ5mrHQPzUBld42VMh8N-21" value="" style="endArrow=none;html=1;rounded=0;entryX=0.05;entryY=0.35;entryDx=0;entryDy=0;entryPerimeter=0;" edge="1" parent="1" target="HZ5mrHQPzUBld42VMh8N-6">
          <mxGeometry width="50" height="50" relative="1" as="geometry">
            <mxPoint x="280" y="350" as="sourcePoint" />
            <mxPoint x="505" y="340" as="targetPoint" />
          </mxGeometry>
        </mxCell>
        <mxCell id="HZ5mrHQPzUBld42VMh8N-22" value="" style="endArrow=none;html=1;rounded=0;entryX=0;entryY=0.5;entryDx=0;entryDy=0;" edge="1" parent="1" target="HZ5mrHQPzUBld42VMh8N-7">
          <mxGeometry width="50" height="50" relative="1" as="geometry">
            <mxPoint x="280" y="350" as="sourcePoint" />
            <mxPoint x="511" y="402" as="targetPoint" />
          </mxGeometry>
        </mxCell>
        <mxCell id="HZ5mrHQPzUBld42VMh8N-23" value="" style="endArrow=none;html=1;rounded=0;entryX=0;entryY=0.5;entryDx=0;entryDy=0;" edge="1" parent="1" target="HZ5mrHQPzUBld42VMh8N-8">
          <mxGeometry width="50" height="50" relative="1" as="geometry">
            <mxPoint x="280" y="350" as="sourcePoint" />
            <mxPoint x="504" y="484" as="targetPoint" />
          </mxGeometry>
        </mxCell>
        <mxCell id="HZ5mrHQPzUBld42VMh8N-24" value="" style="endArrow=none;html=1;rounded=0;entryX=0;entryY=0.5;entryDx=0;entryDy=0;" edge="1" parent="1" target="HZ5mrHQPzUBld42VMh8N-9">
          <mxGeometry width="50" height="50" relative="1" as="geometry">
            <mxPoint x="280" y="350" as="sourcePoint" />
            <mxPoint x="506" y="555" as="targetPoint" />
          </mxGeometry>
        </mxCell>
        <mxCell id="HZ5mrHQPzUBld42VMh8N-25" value="" style="endArrow=none;html=1;rounded=0;entryX=-0.021;entryY=0.403;entryDx=0;entryDy=0;entryPerimeter=0;" edge="1" parent="1" target="HZ5mrHQPzUBld42VMh8N-11">
          <mxGeometry width="50" height="50" relative="1" as="geometry">
            <mxPoint x="290" y="360" as="sourcePoint" />
            <mxPoint x="503" y="626" as="targetPoint" />
          </mxGeometry>
        </mxCell>
        <mxCell id="HZ5mrHQPzUBld42VMh8N-26" value="" style="endArrow=none;html=1;rounded=0;entryX=1;entryY=0.5;entryDx=0;entryDy=0;" edge="1" parent="1" source="HZ5mrHQPzUBld42VMh8N-13" target="HZ5mrHQPzUBld42VMh8N-5">
          <mxGeometry width="50" height="50" relative="1" as="geometry">
            <mxPoint x="290" y="357" as="sourcePoint" />
            <mxPoint x="570" y="280" as="targetPoint" />
          </mxGeometry>
        </mxCell>
        <mxCell id="HZ5mrHQPzUBld42VMh8N-27" value="" style="endArrow=none;html=1;rounded=0;entryX=1;entryY=0.5;entryDx=0;entryDy=0;" edge="1" parent="1" target="HZ5mrHQPzUBld42VMh8N-6">
          <mxGeometry width="50" height="50" relative="1" as="geometry">
            <mxPoint x="880" y="350" as="sourcePoint" />
            <mxPoint x="643" y="334" as="targetPoint" />
          </mxGeometry>
        </mxCell>
        <mxCell id="HZ5mrHQPzUBld42VMh8N-28" value="" style="endArrow=none;html=1;rounded=0;entryX=1;entryY=0.5;entryDx=0;entryDy=0;" edge="1" parent="1" target="HZ5mrHQPzUBld42VMh8N-7">
          <mxGeometry width="50" height="50" relative="1" as="geometry">
            <mxPoint x="880" y="350" as="sourcePoint" />
            <mxPoint x="644" y="411" as="targetPoint" />
          </mxGeometry>
        </mxCell>
        <mxCell id="HZ5mrHQPzUBld42VMh8N-29" value="" style="endArrow=none;html=1;rounded=0;entryX=1;entryY=0.5;entryDx=0;entryDy=0;" edge="1" parent="1" target="HZ5mrHQPzUBld42VMh8N-8">
          <mxGeometry width="50" height="50" relative="1" as="geometry">
            <mxPoint x="880" y="350" as="sourcePoint" />
            <mxPoint x="644" y="484" as="targetPoint" />
          </mxGeometry>
        </mxCell>
        <mxCell id="HZ5mrHQPzUBld42VMh8N-30" value="" style="endArrow=none;html=1;rounded=0;entryX=1;entryY=0.5;entryDx=0;entryDy=0;" edge="1" parent="1" target="HZ5mrHQPzUBld42VMh8N-9">
          <mxGeometry width="50" height="50" relative="1" as="geometry">
            <mxPoint x="880" y="350" as="sourcePoint" />
            <mxPoint x="646" y="555" as="targetPoint" />
          </mxGeometry>
        </mxCell>
        <mxCell id="HZ5mrHQPzUBld42VMh8N-31" value="" style="endArrow=none;html=1;rounded=0;entryX=1;entryY=0.5;entryDx=0;entryDy=0;" edge="1" parent="1" target="HZ5mrHQPzUBld42VMh8N-10">
          <mxGeometry width="50" height="50" relative="1" as="geometry">
            <mxPoint x="880" y="350" as="sourcePoint" />
            <mxPoint x="643" y="626" as="targetPoint" />
          </mxGeometry>
        </mxCell>
      </root>
    </mxGraphModel>
  </diagram>
</mxfile>
